<svg width="177" height="114" viewBox="0 0 177 114" fill="none" xmlns="http://www.w3.org/2000/svg">
<path fill-rule="evenodd" clip-rule="evenodd" d="M89.4898 7.14669C114.712 5.7344 142.682 14.3972 150.494 38.4669C158.309 62.5476 140.238 85.2364 119.555 99.7882C100.117 113.464 74.2872 119.77 55.3502 105.407C37.2364 91.6685 38.9225 65.7933 46.3915 44.2961C53.2796 24.4708 68.571 8.31804 89.4898 7.14669Z" fill="#c8c2dd"/>
<path d="M161.716 27.5816C154.38 27.5816 148.432 21.6764 148.432 14.3919C148.432 7.10739 154.38 1.20215 161.716 1.20215C169.053 1.20215 175 7.10739 175 14.3919C175 21.6764 169.053 27.5816 161.716 27.5816Z" stroke="#1B1B1B" stroke-width="2.37683" stroke-linecap="round" stroke-linejoin="round"/>
</svg>
