<svg width="137" height="106" viewBox="0 0 137 106" fill="none" xmlns="http://www.w3.org/2000/svg">
<path d="M91.4903 44.0375C85.1213 37.5165 81.0567 34.5872 81.121 29.133C80.5103 43.1358 75.3332 52.7299 61.194 53.6632C61.2485 53.6638 67.0625 53.2779 73.7907 60.1759C80.2764 66.8165 105.569 96.0987 108.43 99.4145C109.979 101.11 111.857 102.473 113.95 103.418C116.043 104.363 118.306 104.872 120.602 104.913C127.18 104.991 133.166 101.347 135.732 99.7847L135.737 99.7821L126.478 74.5515L122.709 71.6716C118.388 68.0022 97.1675 49.8504 91.4903 44.0375Z" fill="#EBC7B5"/>
<path d="M60.9589 54.1659C60.9589 54.1659 66.7013 53.6791 73.6101 60.6793C76.8888 64.0454 84.9634 73.1777 92.4984 81.8126" stroke="#1B1B1B" stroke-width="1.4059" stroke-linecap="round" stroke-linejoin="round"/>
<path d="M126.868 74.4531C126.868 74.4531 97.3861 49.6763 91.098 43.2381C84.8099 36.7998 81.2167 33.1208 81.281 27.6667" stroke="#1B1B1B" stroke-width="1.4059" stroke-linecap="round" stroke-linejoin="round"/>
<path d="M79.1436 40.6457C79.1436 40.6457 75.2222 53.9912 62.7424 53.7531C50.2625 53.5149 47.4474 50.927 47.4474 50.927L38.1912 43.3082L35.039 41.5527L30.7471 40.0747L29.9469 36.2286L23.6106 33.881L20.9071 31.849L2.48347 12.9394C2.48347 12.9394 -0.963883 10.7714 2.99038 10.818C6.94464 10.8647 7.36915 11.097 7.36915 11.097L17.4901 19.3987L15.5718 10.921L21.0133 12.058L25.6489 21.3951L25.3522 18.0368L28.9549 17.052L31.6469 20.0567L33.3215 25.3041L36.6576 25.3434L38.1197 23.1696L40.758 24.5645L41.4641 25.5911C41.4641 25.5911 57.6271 27.2819 61.5636 25.7464C65.5002 24.2109 66.0453 21.1626 65.5552 19.5476C65.0651 17.9326 60.785 9.29063 60.2419 7.54774C59.6987 5.80485 59.2146 2.91713 60.5376 1.74175C60.9013 1.40591 61.3371 1.15796 61.8117 1.01698C62.2862 0.875997 62.7867 0.845737 63.2747 0.928531L72.9749 14.8348C72.9749 14.8348 79.6058 24.5864 80.0682 26.2374C80.5305 27.8885 81.6995 36.6937 79.1436 40.6457Z" fill="#F8EFE5"/>
<path d="M36.625 25.3047L33.8434 25.2719" stroke="#1B1B1B" stroke-width="1.36372" stroke-linecap="round" stroke-linejoin="round"/>
<path opacity="0.84" d="M41.2495 25.6886C49.6269 26.1056 56.6245 26.3518 60.2474 25.9673C61.0794 25.9113 61.8874 25.6654 62.6094 25.2484C63.3315 24.8313 63.9483 24.2543 64.4125 23.5617C65.044 22.6137 65.4022 21.5101 65.4477 20.372C65.4932 19.2338 65.2242 18.1051 64.6704 17.1097C63.0517 14.0632 60.2274 8.4022 59.5814 5.35802C59.3638 4.55575 59.4115 3.70463 59.7171 2.93162C60.0228 2.15861 60.5702 1.50513 61.2776 1.06865C61.7475 0.763899 62.3178 0.654936 62.8669 0.765037C63.416 0.875137 63.9003 1.19557 64.2163 1.6579L79.0545 23.9345C80.4213 25.9871 81.1012 30.7772 81.1012 30.7772C80.9017 47.6851 71.0156 53.387 61.1937 53.6439C57.3287 53.7438 64.0471 53.7594 61.1937 53.6439C57.8043 53.5039 48.6456 52.2594 46.1069 50.1293L39.148 44.2923C38.3008 43.5756 37.6231 42.6801 37.1634 41.6702C36.7037 40.6602 36.4735 39.561 36.4895 38.4514L36.6544 24.4706C36.6707 24.1011 36.8325 23.7529 37.1047 23.5023C37.3768 23.2517 37.737 23.119 38.1067 23.1331V23.1331C38.8496 23.1249 39.5723 23.3754 40.1507 23.8417C40.7291 24.308 41.1272 24.9611 41.2768 25.6889C42.0255 29.9773 42.551 34.3018 42.8513 38.6447C42.8513 38.6447 48.2548 42.9996 50.0526 44.7392" stroke="#1B1B1B" stroke-width="1.36372" stroke-linecap="round" stroke-linejoin="round"/>
<path opacity="0.84" d="M22.0659 32.081L20.9503 31.8497C19.8643 31.6295 18.8678 31.0926 18.0865 30.3067C12.9293 25.1091 5.35134 16.2646 2.49145 12.8488C2.35449 12.6867 2.25755 12.4946 2.20846 12.2881C2.15937 12.0816 2.1595 11.8665 2.20882 11.66C2.25815 11.4536 2.3553 11.2616 2.49244 11.0996C2.62958 10.9376 2.80289 10.8101 2.99836 10.7274C3.69549 10.4127 4.45913 10.2735 5.22247 10.3221C5.98581 10.3708 6.72557 10.6057 7.37713 11.0063C10.9317 13.4119 14.2702 16.1221 17.355 19.1064" stroke="#1B1B1B" stroke-width="1.36372" stroke-linecap="round" stroke-linejoin="round"/>
<path d="M29.9443 36.2274L26.262 35.4839C25.5196 35.3438 24.8254 35.016 24.2455 34.5317C23.6656 34.0475 23.2192 33.4229 22.9489 32.7174L15.64 12.6298C15.5678 12.4184 15.5486 12.1925 15.5842 11.972C15.6198 11.7515 15.7089 11.5431 15.8439 11.3651C15.9789 11.1871 16.1555 11.045 16.3583 10.9513C16.561 10.8576 16.7837 10.8151 17.0068 10.8276L18.4703 10.8449C19.0551 10.8436 19.6296 10.9986 20.1345 11.2939C20.6393 11.5891 21.056 12.0139 21.3416 12.5243C23.0676 15.7176 26.6755 22.7788 27.4217 26.5697" stroke="#1B1B1B" stroke-width="1.36372" stroke-linecap="round" stroke-linejoin="round"/>
<path d="M36.425 42.0044L33.3005 40.9766C32.6066 40.7606 31.9781 40.3738 31.4727 39.8515C30.9673 39.3292 30.6013 38.6883 30.4083 37.9877L25.3451 18.663C25.3001 18.4563 25.3031 18.2421 25.354 18.0367C25.4049 17.8314 25.5022 17.6405 25.6385 17.4788C25.7748 17.317 25.9464 17.1887 26.1401 17.1037C26.3338 17.0187 26.5445 16.9794 26.7558 16.9886L28.083 17.0043C28.7395 17.0029 29.3811 17.2 29.9235 17.5699C30.466 17.9397 30.8839 18.465 31.1224 19.0767C32.002 21.5781 33.5959 25.9608 34.7487 29.9656L36.4959 35.9957" stroke="#1B1B1B" stroke-width="1.36372" stroke-linecap="round" stroke-linejoin="round"/>
</svg>
