<svg width="602" height="439" viewBox="0 0 602 439" fill="none" xmlns="http://www.w3.org/2000/svg">
<path d="M384.575 296.388H582.008V283.754H364.09" fill="#F8EFE5"/>
<path d="M575.25 282.698V273.258H545.933L543.136 283.754L575.25 282.698Z" fill="#c8c2dd"/>
<path d="M570.047 296.379V428.472C570.047 430.713 569.157 432.863 567.572 434.448C565.987 436.033 563.837 436.923 561.596 436.923H505.489C503.248 436.923 501.099 436.033 499.514 434.448C497.929 432.863 497.038 430.713 497.038 428.472V296.379" stroke="#1B1B1B" stroke-width="1.4" stroke-linecap="round" stroke-linejoin="round"/>
<path d="M439.469 296.379V428.472C439.469 430.713 438.578 432.863 436.994 434.448C435.409 436.033 433.259 436.923 431.018 436.923H374.92" stroke="#1B1B1B" stroke-width="1.4" stroke-linecap="round" stroke-linejoin="round"/>
<path d="M384.575 287.343H582.008V282.695H364.09" fill="#1B1B1B"/>
<path d="M570.031 389.037H497.074" stroke="#1B1B1B" stroke-width="1.4" stroke-linecap="round" stroke-linejoin="round"/>
<path d="M570.031 340.965H497.074" stroke="#1B1B1B" stroke-width="1.4" stroke-linecap="round" stroke-linejoin="round"/>
<path d="M439.469 389.037H418.274" stroke="#1B1B1B" stroke-width="1.4" stroke-linecap="round" stroke-linejoin="round"/>
<path d="M439.469 340.965H426.513" stroke="#1B1B1B" stroke-width="1.4" stroke-linecap="round" stroke-linejoin="round"/>
<path d="M4 437.852L601 437.852" stroke="#1B1B1B" stroke-width="1.4" stroke-linecap="round" stroke-linejoin="round"/>
<path d="M246.229 211.938C252.049 217.46 258.183 222.641 264.602 227.454" stroke="#1B1B1B" stroke-width="1.4" stroke-linecap="round" stroke-linejoin="round"/>
<path d="M341.867 437.848H107.909C41.9909 437.848 1.00341 408.767 1.00341 353.411C1.00341 298.056 14.9476 259.535 28.4692 216.256C43.8586 167.002 68.806 131.794 122.893 129.656" stroke="#1B1B1B" stroke-width="1.4" stroke-linecap="round" stroke-linejoin="round"/>
<path d="M341.023 271.691C374.895 288.594 384.571 296.378 384.571 296.378C394.953 303.371 403.456 312.81 409.332 323.863C415.208 334.916 418.276 347.244 418.266 359.762C418.23 371.348 415.648 382.786 410.704 393.264C405.759 403.743 398.572 413.006 389.65 420.399" stroke="#1B1B1B" stroke-width="1.4" stroke-linecap="round" stroke-linejoin="round"/>
<path d="M219.258 331.757C219.258 331.757 196.508 311.01 143.199 316.647C121.141 318.971 105.515 321.599 87.4218 322.072" stroke="#1B1B1B" stroke-width="1.4" stroke-linecap="round" stroke-linejoin="round"/>
<path d="M130.867 338.626C123.65 339.248 116.382 338.378 109.516 336.07C102.649 333.763 96.3305 330.068 90.953 325.214C77.8949 313.383 63.1606 303.547 47.2273 296.023" stroke="#1B1B1B" stroke-width="1.4" stroke-linecap="round" stroke-linejoin="round"/>
<path d="M153.14 315.865C153.14 315.865 158.938 305.546 158.938 298.963C158.938 292.379 146.193 275.621 129.427 266.003C112.66 256.386 98.0648 257.974 89.0475 263.045C80.0303 268.116 63.3733 290.334 67.0749 306.992L86.8249 321.553C92.5622 321.73 98.3049 321.567 104.023 321.063C112.237 320.226 153.14 315.865 153.14 315.865Z" fill="#1B1B1B"/>
<path d="M97.8828 321.553V317.327C97.8809 316.677 97.6776 316.044 97.3007 315.514C96.9239 314.984 96.392 314.584 95.7785 314.369C93.7756 313.643 90.167 312.992 84.2428 313.905" stroke="#F8EFE5" stroke-width="1.4" stroke-linecap="round" stroke-linejoin="round"/>
<path d="M91.0625 313.49C89.6 312.977 88.2819 312.12 87.2188 310.992C86.1556 309.864 85.3785 308.498 84.9524 307.008" stroke="#F8EFE5" stroke-width="1.4" stroke-linecap="round" stroke-linejoin="round"/>
<path d="M135.875 317.446V314.235C135.875 313.475 135.65 312.731 135.227 312.099C134.804 311.467 134.203 310.975 133.5 310.686C131.911 310.026 129.41 309.57 125.658 310.238" stroke="#F8EFE5" stroke-width="1.4" stroke-linecap="round" stroke-linejoin="round"/>
<path d="M118.188 288.812C114.22 288.262 110.205 288.145 106.212 288.465L100.229 278.324C100.229 278.324 97.1275 280.226 93.1809 289.733" stroke="#F8EFE5" stroke-width="1.4" stroke-linecap="round" stroke-linejoin="round"/>
<path d="M114.604 288.417C117.315 285.238 120.846 282.864 124.813 281.555L124.348 294.882C124.283 296.837 124.491 298.791 124.965 300.688L126.064 305.032C126.413 306.529 126.34 308.094 125.853 309.553C125.214 311.442 124.272 313.214 123.064 314.801C122.669 315.307 122.163 315.715 121.586 315.997C121.009 316.278 120.376 316.424 119.734 316.424H117.123C116.536 316.424 115.972 316.19 115.557 315.775C115.142 315.36 114.909 314.797 114.909 314.209V312.012" stroke="#F8EFE5" stroke-width="1.4" stroke-linecap="round" stroke-linejoin="round"/>
<path d="M114.906 312.023V314.618C114.906 315.089 114.72 315.542 114.387 315.876C114.054 316.21 113.603 316.399 113.132 316.401H107.968C105.966 316.399 104.005 315.837 102.306 314.778C101.461 314.271 100.616 313.756 99.931 313.418" stroke="#F8EFE5" stroke-width="1.4" stroke-linecap="round" stroke-linejoin="round"/>
<path d="M119.07 316.434V319.442" stroke="#F8EFE5" stroke-width="1.4" stroke-linecap="round" stroke-linejoin="round"/>
<path d="M119.676 284.032C119.676 284.032 119.963 281.691 119.05 280.778C118.138 279.866 115.231 277.753 114.293 276.815C113.354 275.877 114.293 273.941 114.293 273.941" stroke="#F8EFE5" stroke-width="1.4" stroke-linecap="round" stroke-linejoin="round"/>
<path d="M124.422 292.643C124.422 292.643 132.417 284.876 140.758 288.417" stroke="#F8EFE5" stroke-width="1.4" stroke-linecap="round" stroke-linejoin="round"/>
<path d="M109.781 304.52C108.614 303.996 107.358 303.695 106.08 303.633" stroke="#F8EFE5" stroke-width="1.4" stroke-linecap="round" stroke-linejoin="round"/>
<path d="M118.336 304.779C119.508 304.247 120.769 303.94 122.055 303.875" stroke="#F8EFE5" stroke-width="1.4" stroke-linecap="round" stroke-linejoin="round"/>
<path d="M117.208 309.957C116.735 309.476 112.983 309.501 112.552 309.957C112.121 310.414 114.14 312.907 114.901 312.907C115.662 312.907 117.69 310.431 117.208 309.957Z" fill="#F8EFE5"/>
<path d="M145.309 278.168C145.309 278.168 156.075 288.419 158.323 296.025C159.118 298.712 158.712 301.941 157.85 305.051" stroke="#F8EFE5" stroke-width="1.4" stroke-linecap="round" stroke-linejoin="round"/>
<path d="M112.496 381.293H152.773V437.849H112.496V381.293Z" fill="#c8c2dd"/>
<path d="M112.522 437.84H152.664" stroke="#1B1B1B" stroke-width="1.4" stroke-linecap="round" stroke-linejoin="round"/>
<path d="M152.773 381.293H112.623" stroke="#1B1B1B" stroke-width="1.4" stroke-linecap="round" stroke-linejoin="round"/>
<path d="M146.89 392.707H160.023C160.976 392.706 161.92 392.893 162.8 393.258C163.68 393.622 164.48 394.157 165.153 394.832C165.826 395.506 166.359 396.307 166.721 397.188C167.084 398.07 167.269 399.014 167.266 399.966V422.083C167.263 424.002 166.499 425.842 165.141 427.199C163.783 428.555 161.942 429.317 160.023 429.317H146.89C145.939 429.318 144.998 429.132 144.119 428.769C143.241 428.406 142.442 427.873 141.769 427.201C141.097 426.529 140.563 425.731 140.199 424.853C139.835 423.975 139.648 423.034 139.648 422.083V399.966C139.643 399.013 139.827 398.069 140.189 397.187C140.552 396.305 141.085 395.504 141.758 394.829C142.431 394.155 143.231 393.62 144.112 393.255C144.993 392.891 145.937 392.705 146.89 392.707V392.707ZM146.425 419.218C146.424 419.473 146.474 419.727 146.571 419.963C146.668 420.199 146.811 420.414 146.992 420.595C147.173 420.776 147.388 420.919 147.624 421.016C147.86 421.113 148.113 421.163 148.369 421.162H158.51C159.026 421.162 159.52 420.957 159.885 420.592C160.249 420.228 160.454 419.733 160.454 419.218V402.781C160.454 402.264 160.25 401.769 159.885 401.403C159.521 401.037 159.027 400.831 158.51 400.828H148.369C148.113 400.828 147.86 400.879 147.623 400.977C147.387 401.075 147.172 401.219 146.992 401.401C146.811 401.582 146.668 401.797 146.571 402.034C146.474 402.271 146.424 402.525 146.425 402.781V419.218Z" fill="#c8c2dd"/>
<path d="M535.812 273.406H360.031V277.074" stroke="#1B1B1B" stroke-width="1.4" stroke-linecap="round" stroke-linejoin="round"/>
<path d="M395.969 268.577L427.077 172.41H579.195L543.135 283.899" stroke="#1B1B1B" stroke-width="1.4" stroke-linecap="round" stroke-linejoin="round"/>
<path d="M433.125 177.988H570.031L541.416 266.456H404.585L433.125 177.988Z" fill="#F8EFE5" stroke="#1B1B1B" stroke-width="1.4" stroke-linecap="round" stroke-linejoin="round"/>
<path d="M513.383 236.539H540.578L533.665 257.844H506.554L513.383 236.539Z" fill="#c8c2dd"/>
</svg>
