<svg width="67" height="206" viewBox="0 0 67 206" fill="none" xmlns="http://www.w3.org/2000/svg">
<path d="M26.0625 150.004L2.9171 19.8047" stroke="#1B1B1B" stroke-width="1.26531" stroke-linecap="round" stroke-linejoin="round"/>
<path d="M16.007 74.4518C16.2991 76.0215 15.2633 77.5307 13.6937 77.8228C12.124 78.1148 10.6148 77.0791 10.3228 75.5094L1.40782 27.5955C1.11577 26.0258 2.15147 24.5166 3.72114 24.2246C5.2908 23.9325 6.80002 24.9682 7.09208 26.5379L16.007 74.4518Z" fill="#EBC7B5"/>
<path d="M8.39113 187.137C8.04517 186.498 7.65565 185.884 7.22531 185.299C34.7722 66.9371 66.875 32.6055 66.875 32.6055C43.9177 81.7443 19.8805 153.064 8.67941 187.669L8.39113 187.137Z" fill="#F8EFE5"/>
<path d="M25.7413 203.768C24.8322 105.968 26.4322 20.832 26.4322 20.832C37.0958 75.0773 31.3776 164.75 27.9504 205.186C27.2049 204.732 26.4685 204.259 25.7413 203.768Z" fill="#1B1B1B"/>
<path d="M42.4347 203.906C42.4347 203.906 33.77 69.8105 7.57169 1.63658C7.57275 1.65474 22.656 98.9786 42.4347 203.906Z" fill="#F8EFE5"/>
<path d="M18.7421 150.916L52.1406 3.66406" stroke="#1B1B1B" stroke-width="1.26531" stroke-linecap="round" stroke-linejoin="round"/>
<path d="M46.3049 14.4306C46.7203 12.5993 48.5396 11.4511 50.3684 11.866C52.1972 12.2809 53.3429 14.1017 52.9275 15.9329L40.2609 71.7686C39.8455 73.5998 38.0262 74.748 36.1974 74.3332C34.3686 73.9183 33.2229 72.0975 33.6383 70.2662L46.3049 14.4306Z" fill="#EBC7B5"/>
</svg>
