<svg width="132" height="99" viewBox="0 0 132 99" fill="none" xmlns="http://www.w3.org/2000/svg">
<path d="M86.8543 71.8995L97.1139 67.8091L103.41 66.4822L130.453 43.2244V40.9003L126.583 39.4213C126.583 39.4213 117.202 45.1851 116.391 45.9964C115.579 46.8077 112.74 47.3402 112.74 47.3402L112.216 44.9147C112.216 44.9147 112.106 31.2828 114.962 25.5782L116.391 25.2317L120.464 21.9104L123.464 20.2793L124.58 17.2622L123.481 15.2085H117.447L124.132 5.52342L124.63 2.59085L120.777 1.49219L107.847 17.2791L104.711 19.2398L100.799 22.0625L96.6322 25.2993C96.6322 25.2993 92.1446 38.9396 90.3107 44.4329C88.4769 49.9262 86.9303 52.487 83.5499 53.7293C80.1695 54.9716 74.8876 56.7126 74.8876 56.7126C74.8876 56.7126 72.3523 57.1605 74.1693 62.5693C75.9863 67.9781 80.2202 70.936 83.5499 71.4009L86.8543 71.8995Z" fill="#F8EFE5"/>
<path d="M18.3521 70.8956L84.1011 53.6128C87.8956 52.4803 89.1717 48.0434 90.3211 44.6629C91.4704 41.2825 96.0847 26.4083 98.282 24.2109C98.282 24.2109 105.972 24.2109 109.767 25.4702C110.036 25.5625 110.268 25.7371 110.432 25.9692C110.596 26.2013 110.683 26.4791 110.68 26.7632V27.3971C110.681 27.7253 110.605 28.0492 110.458 28.3428C110.312 28.6364 110.098 28.8914 109.835 29.0873L109.167 29.5859C108.661 29.9749 108.028 30.159 107.392 30.1015L101.755 29.6197C100.331 34.0699 99.2878 38.6331 98.6369 43.26" stroke="#1B1B1B" stroke-width="1.4" stroke-linecap="round" stroke-linejoin="round"/>
<path d="M98.3243 24.2125L102.862 20.4095L117.229 19.3109C117.515 19.2888 117.802 19.3259 118.072 19.4199C118.343 19.5139 118.591 19.6627 118.801 19.8571C119.011 20.0515 119.179 20.2872 119.294 20.5495C119.409 20.8118 119.468 21.095 119.469 21.3814C119.47 21.9471 119.289 22.4982 118.953 22.9533L118.226 23.9505C117.905 24.3878 117.485 24.7433 117 24.9885C116.516 25.2336 115.981 25.3615 115.438 25.3618H110.705" stroke="#1B1B1B" stroke-width="1.4" stroke-linecap="round" stroke-linejoin="round"/>
<path d="M103.426 20.367L107.094 17.3922L108.209 17.2317L121.807 15.271C122.446 15.1882 123.092 15.3518 123.615 15.7285C124.138 16.1053 124.497 16.6669 124.621 17.2993V17.2993C124.722 17.856 124.672 18.4296 124.476 18.9603C124.28 19.491 123.944 19.9593 123.505 20.3163C122.368 21.2495 121.008 21.8726 119.559 22.1248" stroke="#1B1B1B" stroke-width="1.4" stroke-linecap="round" stroke-linejoin="round"/>
<path d="M108.176 17.2296L119.762 2.41495C120.071 2.02156 120.502 1.74232 120.987 1.6214C121.472 1.50048 121.984 1.5448 122.441 1.74732L123.143 2.06001C123.462 2.20175 123.747 2.41232 123.975 2.67668C124.204 2.94105 124.372 3.2527 124.466 3.58934C124.561 3.92599 124.58 4.27934 124.522 4.62416C124.464 4.96898 124.331 5.29676 124.131 5.58408L116.973 15.9619" stroke="#1B1B1B" stroke-width="1.4" stroke-linecap="round" stroke-linejoin="round"/>
<path d="M114.88 25.3496C112.761 32.5508 111.842 40.0514 112.158 47.551C115.64 46.8327 120.238 43.9931 125.418 40.0125C125.893 39.7841 126.421 39.6879 126.946 39.734C127.471 39.7801 127.973 39.9668 128.401 40.2745L129.567 41.1196C129.806 41.2918 130.003 41.5148 130.145 41.7724C130.286 42.0301 130.369 42.316 130.387 42.6095C130.405 42.903 130.357 43.1968 130.248 43.4697C130.138 43.7426 129.969 43.9877 129.753 44.1874C126.069 47.5679 117.491 55.4867 112.209 59.9152C105.947 65.1549 103.428 67.4368 98.2226 67.8086C96.9842 67.8906 95.7679 68.1761 94.6224 68.6538C84.3798 72.8794 37.3245 92.3172 27.7072 96.078C16.8983 100.304 4.04434 97.6584 0.841398 92.3172" stroke="#1B1B1B" stroke-width="1.4" stroke-linecap="round" stroke-linejoin="round"/>
<path d="M76.6668 55.8262C68.9256 58.0826 77.6555 73.6832 87.2812 71.731" stroke="#1B1B1B" stroke-width="1.4" stroke-linecap="round" stroke-linejoin="round"/>
</svg>
