<svg width="117" height="154" viewBox="0 0 117 154" fill="none" xmlns="http://www.w3.org/2000/svg">
<path d="M84.899 0.784623C84.899 0.784623 86.912 36.9543 85.1356 64.636C83.7255 87.3921 81.9483 110.464 73.1446 131.616C69.871 123.492 64.9044 116.78 59.74 109.69C68.3602 112.263 66.9617 97.1581 67.7513 92.0067C69.1475 83.0045 70.629 74.0189 72.1956 65.05C75.3707 46.9174 74.2554 48.1013 78.1696 30.11C80.2024 20.7721 84.899 0.784623 84.899 0.784623Z" fill="#F8EFE5"/>
<path d="M73.9803 146.83C55.0599 97.6071 42.6275 59.0705 12.367 15.4638C35.0805 32.2171 50.3599 61.68 62.3737 86.4305C74.3874 111.181 68.992 112.813 76.7726 139.164L71.4714 133.974" fill="#EBC7B5"/>
<path d="M76.7486 141.062C74.9001 140.927 73.0422 140.995 71.2086 141.265C71.2254 141.148 71.3219 141.052 71.3748 140.94C83.519 117.707 88.5345 101.244 116.438 77.3867C100.553 98.9796 90.1086 120.548 80.5294 141.34L76.7486 141.062Z" fill="#F8EFE5"/>
<path d="M60.9067 140.728C58.0722 141.389 55.2353 142.034 52.3961 142.664C51.548 139.939 50.8899 137.159 50.4264 134.343C46.675 105.144 38.1856 76.7521 25.2929 50.2863C43.3444 68.0384 55.7723 90.7106 61.0275 115.477C62.4392 122.202 64.2519 130.926 64.5261 139.121C63.2803 139.563 62.0703 140.101 60.9067 140.728V140.728Z" fill="#F8EFE5"/>
<path d="M75.8968 142.731L74.3898 142.711C72.0813 142.677 69.7836 142.93 67.5615 143.462L64.7731 143.408C67.3543 134.071 70.2978 124.81 73.4856 115.64C78.3536 101.622 83.911 87.8213 90.158 74.2388C93.2861 67.4641 96.5835 60.7457 100.05 54.0835C102.162 49.9964 110.227 35.5938 110.227 35.5938C110.227 35.5938 95.8122 78.7973 91.0987 95.8477C86.7381 111.703 82.4853 127.558 75.8968 142.731Z" fill="#EBC7B5"/>
<path d="M65.1708 142.815C63.9311 143.329 62.7322 143.936 61.5843 144.632C59.1711 145.321 56.7483 145.993 54.3159 146.649C40.4608 116.869 20.3795 89.651 0.449291 62.8006C30.0548 82.6551 52.7395 111.002 65.1708 142.815Z" fill="#EBC7B5"/>
</svg>
