<svg width="596" height="264" viewBox="0 0 596 264" fill="none" xmlns="http://www.w3.org/2000/svg">
<path d="M196.68 86.8049C196.821 86.1087 197.129 85.4572 197.576 84.9059C198.023 84.3546 198.596 83.9199 199.247 83.639C205.943 80.7569 216.816 75.893 216.816 75.893C227.924 71.6604 254.355 82.0585 254.355 82.0585C255.048 82.279 255.646 82.7272 256.054 83.3307L278.117 115.92L286.321 117.994C285.675 118.991 285.291 120.136 285.203 121.322L285.179 121.385C284.886 122.163 284.481 122.907 284.203 123.69C283.925 124.473 283.681 125.579 283.481 125.995C282.885 127.228 282.114 128.309 281.675 129.635C281.547 130.043 281.443 130.458 281.363 130.878C280.997 131.47 280.747 132.126 280.626 132.811C275.745 132.048 271.607 131.343 269.709 130.854C267.81 130.364 264.799 127.193 261.656 123.093C259.704 129.454 257.508 136.182 257.508 141.198C257.494 146.626 258.15 152.035 259.46 157.301C259.46 157.301 253.223 157.409 250.729 159.91C248.235 162.41 208.866 173.938 208.866 173.938C208.866 173.938 207.368 170.024 209.115 157.982C210.228 150.338 211.643 147.256 209.164 138.707C201.302 140.914 190.975 140.439 190.975 128.104C190.965 116.145 195.24 93.9392 196.68 86.8049Z" fill="#3C8AAC"/>
<path d="M242.006 196.884C241.29 196.247 240.463 195.75 239.566 195.416C234.647 193.718 229.491 192.817 224.29 192.744C211.362 186.133 208.874 173.915 208.874 173.915C238.643 150.755 283.869 151.078 300.135 151.078C302.087 151.078 303.527 151.504 304.591 152.238C301.989 151.225 298.798 151.45 296.226 152.458C294.376 153.182 292.126 154.053 290.726 155.492C290.515 155.711 290.316 155.942 290.13 156.182L290.028 156.265C289.466 156.691 288.972 157.201 288.564 157.777C287.752 158.085 287.004 158.541 286.358 159.123C285.294 160.101 284.264 160.963 283.552 162.269C283.244 162.837 282.976 163.434 282.683 164.016C281.951 164.556 281.334 165.238 280.869 166.021C280.405 166.804 280.102 167.674 279.979 168.577C279.911 168.66 279.838 168.743 279.774 168.831C279.444 169.292 279.158 169.784 278.92 170.299C278.891 170.353 278.808 170.475 278.72 170.612C277.796 171.336 277.16 172.367 276.924 173.519C276.63 173.996 276.409 174.516 276.27 175.06C276.236 175.173 276.212 175.28 276.187 175.393C276.163 175.505 276.085 175.549 276.041 175.628C274.216 179.053 272.029 182.199 270.648 185.85C269.893 188.005 269.323 190.222 268.945 192.475C268.945 192.475 254.817 197.236 242.006 196.884Z" fill="#1B1B1B"/>
<path d="M243.299 124.67L249.224 122.301L252.859 121.533L268.476 108.067V106.721L266.241 105.865C266.241 105.865 260.824 109.202 260.356 109.672C259.887 110.142 258.247 110.45 258.247 110.45L257.945 109.046C257.945 109.046 257.881 101.153 259.531 97.85L260.356 97.6493L262.708 95.7263L264.44 94.7819L265.085 93.035L264.45 91.846H260.966L264.826 86.2384L265.114 84.5404L262.888 83.9043L255.422 93.0448L253.611 94.18L251.351 95.8144L248.945 97.6885C248.945 97.6885 246.354 105.586 245.295 108.767C244.236 111.947 243.343 113.43 241.391 114.149C239.439 114.869 236.388 115.877 236.388 115.877C236.388 115.877 234.924 116.136 235.974 119.268C237.023 122.399 239.468 124.112 241.391 124.381L243.299 124.67Z" fill="#F8EFE5"/>
<path d="M316.241 137.807C316.241 137.807 310.805 133.819 310.126 133.242C309.448 132.664 308.003 131.314 308.003 131.314L308.814 130.135L307.13 128.143C307.13 128.143 306.388 127.904 306.852 126.47C307.315 125.036 308.008 125.868 308.008 125.868L306.627 123.984L308.316 122.854L315.187 125.868L321.175 128.055L321.663 127.307L316.578 122.467C316.578 122.467 312.401 119.473 312.157 119.228C311.913 118.983 312.044 117.183 312.044 117.183L313.02 116.654L316.969 119.15L323.801 123.999C324.306 124.269 324.729 124.67 325.027 125.159C325.324 125.649 325.486 126.21 325.494 126.783C325.494 128.74 323.806 132.229 323.806 132.229L320.721 137.019C320.287 137.329 319.799 137.554 319.282 137.685C318.613 137.788 316.241 137.807 316.241 137.807Z" fill="#F8EFE5"/>
<path d="M245.381 103.946L230.413 86.927L217.841 74.875V71.6504H219.74L227.924 72.4676L241.101 72.7905H244.019L243.409 79.274L245.381 103.946Z" fill="#F8EFE5"/>
<path d="M238.641 78.419L238.48 70.9177C240.695 70.4555 242.665 69.1972 244.019 67.3799C246.181 64.3559 251.032 53.1553 251.032 53.1553L254.902 50.2536C254.902 50.2536 261.105 43.5989 261.105 40.11C261.105 40.11 254.311 26.5264 243.536 23.4388C232.76 20.3512 229.983 22.4602 229.983 22.4602L226.972 19.2747L225.444 18.9566C225.444 18.9566 226.084 12.4633 221.609 10.8486C217.133 9.23381 210.94 10.1488 208.432 11.7147C205.923 13.2805 203.747 14.9295 203.747 19.2992C203.766 21.3454 204.485 23.323 205.785 24.9006C207.085 26.4782 208.886 27.5601 210.887 27.965C214.849 28.8067 215.645 27.2898 215.645 27.2898L217.402 28.7969C217.402 28.7969 211.179 38.8427 212.37 46.9703C212.37 46.9703 218.441 56.3212 221.291 59.1789L219.72 71.6517L229.695 81.3549L237.255 83.1018L238.641 78.419Z" fill="#F8EFE5"/>
<path d="M303.047 262.897H248.305C248.305 262.897 246.997 257.833 248.173 250.904L249.496 246.065L250.813 245.399L252.317 246.261C252.317 246.261 255.025 250.459 261.399 251.071C267.772 251.682 270.583 253.488 273.268 253.449C275.952 253.409 275.8 252.822 276.396 252.225C276.66 251.903 277.034 251.691 277.445 251.628L285.356 253.874L289.46 251.628L299.465 254.148L301.905 256.487L303.067 258.86L303.047 262.897Z" fill="#F8EFE5"/>
<path d="M303.833 127.439C300.822 127.439 297.86 129.886 297.211 132.905C296.562 135.924 298.475 138.366 301.481 138.366C302.539 138.329 303.575 138.053 304.511 137.558C305.447 137.063 306.26 136.362 306.888 135.508" stroke="#1B1B1B" stroke-width="0.808469" stroke-linecap="round" stroke-linejoin="round"/>
<path d="M324.281 123.348L329.815 119.556C330.134 119.337 330.373 119.019 330.494 118.652C330.616 118.284 330.614 117.887 330.489 117.52C330.433 117.358 330.344 117.21 330.225 117.086C330.107 116.962 329.963 116.865 329.804 116.802C329.645 116.739 329.474 116.712 329.303 116.722C329.133 116.732 328.966 116.779 328.815 116.86L326.477 118.367" fill="#F8EFE5"/>
<path d="M324.281 123.348L329.815 119.556C330.134 119.337 330.373 119.019 330.494 118.652C330.616 118.284 330.614 117.887 330.489 117.52V117.52C330.433 117.358 330.344 117.21 330.225 117.086C330.107 116.962 329.963 116.865 329.804 116.802C329.645 116.739 329.474 116.712 329.303 116.722C329.133 116.732 328.966 116.779 328.815 116.86L326.477 118.367" stroke="#1B1B1B" stroke-width="0.808469" stroke-linecap="round" stroke-linejoin="round"/>
<path d="M456.618 173.679V168.214H439.688L438.073 174.291L456.618 173.679Z" fill="#3C8AAC"/>
<path d="M319.732 132.042L315.749 130.183C314.656 129.693 313.582 129.116 312.538 128.519L307.326 125.534C307.224 125.475 307.135 125.396 307.065 125.301C306.994 125.206 306.944 125.098 306.917 124.983C306.889 124.868 306.885 124.749 306.905 124.633C306.925 124.516 306.969 124.405 307.033 124.306L307.248 123.978C307.417 123.721 307.672 123.533 307.967 123.447C308.263 123.362 308.579 123.386 308.858 123.513L313.172 125.505C314.148 125.955 315.149 126.364 316.174 126.733L321.283 128.377C321.737 128.539 321.591 128.323 321.283 127.966L318.985 125.162C318.253 124.362 317.46 123.621 316.613 122.946L312.191 119.707C311.932 119.518 311.755 119.236 311.698 118.919C311.641 118.603 311.707 118.277 311.884 118.009L312.079 117.661C312.207 117.468 312.404 117.332 312.63 117.281C312.855 117.23 313.091 117.268 313.29 117.387L317.326 119.834C319.069 120.891 320.739 122.067 322.323 123.352L323.797 124.477C324.664 125.182 325.263 126.166 325.49 127.261V127.261C325.621 127.909 325.619 128.576 325.486 129.222C325.353 129.869 325.09 130.482 324.714 131.024L321.786 136.436C321.349 137.055 320.76 137.551 320.076 137.875C319.392 138.199 318.636 138.341 317.882 138.286C316.984 138.227 316.115 137.945 315.354 137.464C312.923 135.988 310.645 134.276 308.551 132.35V132.35C308.37 132.184 308.255 131.959 308.224 131.715C308.194 131.472 308.251 131.225 308.385 131.019V131.019C308.474 130.885 308.589 130.769 308.723 130.68C308.857 130.59 309.007 130.528 309.165 130.498C309.323 130.467 309.486 130.468 309.644 130.502C309.801 130.535 309.951 130.6 310.083 130.692L313.294 132.952" stroke="#1B1B1B" stroke-width="0.808469" stroke-linecap="round" stroke-linejoin="round"/>
<path d="M289.467 252.123C289.467 252.123 282.532 249.54 280.561 247.568C277.525 244.519 278.301 240.962 284.265 228.812C293.337 210.335 312.307 185.517 316.821 174.566C321.335 163.615 317.66 156.632 310.691 155.541C309.53 155.36 308.251 155.184 306.87 155.052" stroke="#1B1B1B" stroke-width="0.808469" stroke-linecap="round" stroke-linejoin="round"/>
<path d="M290.636 263H303V259.059C302.676 257.881 302.044 256.809 301.169 255.954C300.294 255.098 299.207 254.491 298.019 254.192C295.627 253.595 292.522 252.793 289.679 252C288.627 252.478 288.091 254.054 285 254.025" stroke="#1B1B1B" stroke-width="0.808469" stroke-linecap="round" stroke-linejoin="round"/>
<path d="M276.858 252.123L270.338 249.872C269.591 249.621 268.895 249.236 268.284 248.737C266.668 247.377 264.867 244.284 271.656 228.812C279.952 209.973 301.016 179.488 305.53 168.542C310.044 157.596 307.179 152.037 300.123 152.037C289.591 152.037 278.488 167.759 272.266 183.05C266.044 198.342 261.329 228.259 252.442 244.406C252.13 244.969 251.852 245.507 251.603 246.031" stroke="#1B1B1B" stroke-width="0.808469" stroke-linecap="round" stroke-linejoin="round"/>
<path d="M248.493 263H290V259.077C289.674 257.904 289.039 256.836 288.16 255.985C287.281 255.134 286.188 254.529 284.995 254.232C282.591 253.638 279.471 252.839 276.615 252.049C276.199 252.694 275.599 253.202 274.892 253.51C274.184 253.819 273.4 253.912 272.639 253.78C251.734 250.813 251.734 246.129 251.734 246.129C251.734 246.129 249.892 245.364 249.214 247.556C246.998 254.646 248.493 263 248.493 263Z" stroke="#1B1B1B" stroke-width="0.808469" stroke-linecap="round" stroke-linejoin="round"/>
<path d="M310.13 155.457L317.88 138.287" stroke="#1B1B1B" stroke-width="0.808469" stroke-linecap="round" stroke-linejoin="round"/>
<path d="M273.314 152.57L290.609 106.486C291.151 105.043 292.18 103.835 293.517 103.074C294.855 102.312 296.416 102.044 297.93 102.317L325.782 107.362C326.397 107.473 326.978 107.723 327.483 108.093C327.987 108.463 328.402 108.943 328.695 109.496C328.987 110.05 329.151 110.663 329.173 111.289C329.195 111.915 329.075 112.538 328.822 113.111L323.795 124.478" stroke="#1B1B1B" stroke-width="0.808469" stroke-linecap="round" stroke-linejoin="round"/>
<path d="M241.182 86.8154L244.91 93.152L245.486 104.641L237.551 95.5349L237.277 87.4124" fill="#1B1B1B"/>
<path d="M308.798 126.593C308.483 126.399 308.107 126.332 307.745 126.404C307.383 126.477 307.062 126.684 306.846 126.984V126.984C306.753 127.112 306.687 127.257 306.65 127.41C306.614 127.564 306.609 127.723 306.635 127.879C306.661 128.035 306.717 128.184 306.801 128.318C306.885 128.451 306.995 128.567 307.124 128.657L309.906 130.615C312.157 132.187 314.477 133.655 316.865 135.019L317.299 135.263" stroke="#1B1B1B" stroke-width="0.808469" stroke-linecap="round" stroke-linejoin="round"/>
<path d="M239.593 112.94L216.529 95.3491L211.649 78.0565L217.827 75.3701C217.827 75.3701 228.124 84.1779 245.854 105.092" stroke="#1B1B1B" stroke-width="0.808469" stroke-linecap="round" stroke-linejoin="round"/>
<path d="M245.488 104.642C245.488 95.9513 243.536 78.9131 243.536 78.9131L249.744 80.8704L254.355 94.6741" stroke="#1B1B1B" stroke-width="0.808469" stroke-linecap="round" stroke-linejoin="round"/>
<path d="M203.741 124.582L241.709 114.575C243.901 113.92 244.637 111.351 245.301 109.393C245.965 107.436 248.63 98.824 249.898 97.5518C249.898 97.5518 254.339 97.5518 256.531 98.2808C256.686 98.3343 256.82 98.4354 256.915 98.5698C257.01 98.7042 257.06 98.865 257.058 99.0295V99.3965C257.059 99.5865 257.015 99.7741 256.93 99.9441C256.845 100.114 256.722 100.262 256.57 100.375L256.184 100.664C255.892 100.889 255.526 100.996 255.159 100.962L251.904 100.683C251.082 103.26 250.479 105.902 250.103 108.581" stroke="#1B1B1B" stroke-width="0.808469" stroke-linecap="round" stroke-linejoin="round"/>
<path d="M207.073 123.686L211.26 102.2" stroke="#1B1B1B" stroke-width="0.808469" stroke-linecap="round" stroke-linejoin="round"/>
<path d="M249.919 97.5515L252.54 95.3497L260.837 94.7136C261.001 94.7008 261.167 94.7222 261.323 94.7767C261.48 94.8311 261.623 94.9173 261.744 95.0298C261.866 95.1424 261.963 95.2789 262.029 95.4307C262.095 95.5826 262.13 95.7466 262.13 95.9124C262.131 96.2399 262.026 96.559 261.832 96.8225L261.412 97.3999C261.227 97.653 260.984 97.8589 260.704 98.0008C260.425 98.1428 260.115 98.2168 259.802 98.217H257.069" stroke="#1B1B1B" stroke-width="0.808469" stroke-linecap="round" stroke-linejoin="round"/>
<path d="M252.868 95.325L254.986 93.6027L255.63 93.5097L263.482 92.3745C263.851 92.3265 264.225 92.4212 264.527 92.6394C264.829 92.8575 265.036 93.1827 265.108 93.5488V93.5488C265.166 93.8712 265.137 94.2033 265.024 94.5105C264.91 94.8178 264.717 95.089 264.463 95.2957C263.806 95.836 263.021 96.1967 262.184 96.3428" stroke="#1B1B1B" stroke-width="0.808469" stroke-linecap="round" stroke-linejoin="round"/>
<path d="M255.613 93.5083L262.303 84.9307C262.482 84.7029 262.731 84.5413 263.011 84.4712C263.291 84.4012 263.587 84.4269 263.851 84.5442L264.256 84.7252C264.44 84.8073 264.604 84.9292 264.737 85.0822C264.869 85.2353 264.966 85.4158 265.02 85.6107C265.075 85.8056 265.086 86.0102 265.052 86.2098C265.019 86.4095 264.942 86.5993 264.827 86.7656L260.693 92.7743" stroke="#1B1B1B" stroke-width="0.808469" stroke-linecap="round" stroke-linejoin="round"/>
<path d="M259.483 98.2109C258.259 102.38 257.729 106.723 257.911 111.065C259.922 110.649 262.577 109.005 265.568 106.701C265.843 106.568 266.147 106.513 266.45 106.539C266.754 106.566 267.044 106.674 267.291 106.852L267.965 107.342C268.102 107.441 268.216 107.57 268.298 107.72C268.38 107.869 268.428 108.034 268.438 108.204C268.448 108.374 268.421 108.544 268.357 108.702C268.294 108.86 268.197 109.002 268.072 109.118C265.944 111.075 260.991 115.66 257.94 118.224C254.324 121.258 252.87 122.579 249.864 122.794C249.148 122.842 248.446 123.007 247.785 123.284C241.87 125.73 214.696 136.985 209.142 139.162C202.901 141.609 195.478 140.077 193.628 136.985" stroke="#1B1B1B" stroke-width="0.808469" stroke-linecap="round" stroke-linejoin="round"/>
<path d="M262.693 102.2C262.693 102.2 264.206 105.351 264.455 107.558" stroke="#1B1B1B" stroke-width="0.808469" stroke-linecap="round" stroke-linejoin="round"/>
<path d="M264.455 112.472C264.455 112.472 263.435 117.512 261.331 124.582" stroke="#1B1B1B" stroke-width="0.808469" stroke-linecap="round" stroke-linejoin="round"/>
<path d="M249.89 122.797C249.89 122.797 246.913 139.811 249.89 157.206" stroke="#1B1B1B" stroke-width="0.808469" stroke-linecap="round" stroke-linejoin="round"/>
<path d="M237.414 115.856C232.943 117.163 237.985 126.196 243.543 125.065" stroke="#1B1B1B" stroke-width="0.808469" stroke-linecap="round" stroke-linejoin="round"/>
<path d="M273.314 119.782L278.121 116.391L282.684 117.545" stroke="#1B1B1B" stroke-width="0.808469" stroke-linecap="round" stroke-linejoin="round"/>
<path d="M278.123 116.389L275.307 112.229" stroke="#1B1B1B" stroke-width="0.808469" stroke-linecap="round" stroke-linejoin="round"/>
<path d="M217.845 75.3691V72.1445L227.928 72.9617V84.4311" stroke="#1B1B1B" stroke-width="0.808469" stroke-linecap="round" stroke-linejoin="round"/>
<path d="M239.445 73.2852H244.023L243.413 79.7685" stroke="#1B1B1B" stroke-width="0.808469" stroke-linecap="round" stroke-linejoin="round"/>
<path d="M237.277 87.4125L240.337 87.1875C240.564 87.1707 240.783 87.0986 240.975 86.9775C241.167 86.8564 241.327 86.6899 241.44 86.4926C241.533 86.333 241.593 86.1566 241.617 85.9735C241.641 85.7904 241.629 85.6043 241.582 85.4259L240.488 81.3157C240.37 80.8731 240.109 80.4819 239.746 80.2025C239.384 79.9231 238.94 79.7709 238.483 79.7695H232.763C232.548 79.7695 232.335 79.8121 232.136 79.8948C231.937 79.9775 231.757 80.0986 231.605 80.2514C231.453 80.4041 231.333 80.5854 231.251 80.7848C231.169 80.9843 231.127 81.1979 231.128 81.4136C231.129 81.8253 231.284 82.2217 231.562 82.5243L235.384 86.6639C235.622 86.9243 235.916 87.127 236.245 87.2567C236.573 87.3864 236.926 87.4397 237.277 87.4125Z" fill="#1B1B1B"/>
<path d="M235.947 87.8668C238.421 87.0986 240.593 86.7757 242.174 87.2699" stroke="#F8EFE5" stroke-width="0.808469" stroke-miterlimit="10"/>
<path d="M240.628 81.8486H241.73" stroke="#1B1B1B" stroke-width="0.808469" stroke-linecap="round" stroke-linejoin="round"/>
<path d="M231.129 81.4141H228.313" stroke="#1B1B1B" stroke-width="0.808469" stroke-linecap="round" stroke-linejoin="round"/>
<path d="M238.483 79.7685V71.4111" stroke="#1B1B1B" stroke-width="0.808469" stroke-linecap="round" stroke-linejoin="round"/>
<path d="M229.316 65.7833C229.316 65.7833 230.331 67.7014 234.114 69.9425C237.896 72.1836 241.805 71.2979 245.299 66.1894C248.794 61.0809 250.77 55.1943 252.132 49.5525C252.852 46.3867 253.066 43.1264 252.766 39.8933L252.61 38.1953" stroke="#1B1B1B" stroke-width="0.808469" stroke-linecap="round" stroke-linejoin="round"/>
<path d="M238.068 35.2814C242.329 34.8704 251.416 35.7267 257.228 41.5544" stroke="#1B1B1B" stroke-width="0.808469" stroke-linecap="round" stroke-linejoin="round"/>
<path d="M236.152 35.1133C236.152 35.1133 233.248 42.7416 227.929 43.4609C227.929 43.4609 227.206 41.4743 226.055 40.6033C223.614 38.7488 222.248 41.0926 222.306 46.2108C222.365 51.329 224.805 51.9406 225.723 51.0011" stroke="#1B1B1B" stroke-width="0.808469" stroke-linecap="round" stroke-linejoin="round"/>
<path d="M251.036 48.6496C251.036 48.6496 250.03 47.0887 247.009 47.5487" stroke="#1B1B1B" stroke-width="0.808469" stroke-linecap="round" stroke-linejoin="round"/>
<path d="M245.941 48.6494C245.056 50.2693 244.605 52.0919 244.633 53.9388V58.5775C244.635 58.6934 244.596 58.8061 244.522 58.8957C244.449 58.9853 244.347 59.046 244.233 59.0668C243.194 59.2252 242.135 59.2003 241.105 58.9934" stroke="#1B1B1B" stroke-width="0.808469" stroke-linecap="round" stroke-linejoin="round"/>
<path d="M243.523 46.2126C243.523 46.2126 238.819 43.3844 234.914 45.2339" stroke="#1B1B1B" stroke-width="0.808469" stroke-linecap="round" stroke-linejoin="round"/>
<path d="M252.895 52.6115C252.895 52.6115 257.663 48.9513 260.84 41.8758C261.018 41.4801 261.102 41.0489 261.087 40.6153C261.072 40.1817 260.957 39.7574 260.752 39.3753C255.199 28.943 247.371 24.8963 241.08 23.1739C227.903 19.5627 217.337 29.2904 217.337 29.2904C212.677 35.3678 212.34 43.7254 212.369 46.5145C212.373 47.1232 212.522 47.7222 212.804 48.2614C213.78 50.1159 217.738 56.0905 221.29 59.6724" stroke="#1B1B1B" stroke-width="0.808469" stroke-linecap="round" stroke-linejoin="round"/>
<path d="M222.885 50.0078L219.742 72.1442" stroke="#1B1B1B" stroke-width="0.808469" stroke-linecap="round" stroke-linejoin="round"/>
<path d="M228.788 21.7449L227.655 20.6048C227.353 20.2952 226.983 20.0598 226.575 19.9172C226.167 19.7746 225.732 19.7286 225.303 19.7828C221.939 20.266 218.824 21.8361 216.431 24.2551C215.963 24.7558 215.692 25.4097 215.669 26.0954C215.645 26.7812 215.871 27.4521 216.304 27.9836L217.368 29.2901C220.457 26.39 224.233 24.3286 228.339 23.3009C228.499 23.2631 228.646 23.1833 228.765 23.0697C228.884 22.9561 228.971 22.8128 229.016 22.6544C229.062 22.4961 229.065 22.3284 229.025 22.1686C228.985 22.0088 228.903 21.8626 228.788 21.7449Z" fill="#1B1B1B" stroke="#1B1B1B" stroke-width="0.808469" stroke-linecap="round" stroke-linejoin="round"/>
<path d="M225.433 19.4303C225.613 17.3801 225.579 12.58 221.597 11.3224C216.487 9.7224 208.952 10.7206 205.492 14.1702C202.032 17.6199 204.028 25.9773 208.508 27.8024C209.667 28.302 210.919 28.5494 212.181 28.5284C213.443 28.5073 214.686 28.2181 215.828 27.68" stroke="#1B1B1B" stroke-width="0.808469" stroke-linecap="round" stroke-linejoin="round"/>
<path d="M225.995 19.7843C225.995 19.7843 227.947 18.8497 227.947 15.9971" stroke="#1B1B1B" stroke-width="0.808469" stroke-linecap="round" stroke-linejoin="round"/>
<path d="M215.629 25.078C215.078 23.3361 213.482 19.7788 209.436 18.6094" stroke="#1B1B1B" stroke-width="0.808469" stroke-linecap="round" stroke-linejoin="round"/>
<path d="M242.735 63.4701C241.725 63.7492 240.659 63.7487 239.649 63.4687C238.64 63.1887 237.724 62.6397 237.001 61.8799" stroke="#1B1B1B" stroke-width="0.808469" stroke-linecap="round" stroke-linejoin="round"/>
<path d="M238.544 50.7674C238.051 50.6491 237.794 49.9589 237.969 49.2256C238.144 48.4923 238.685 47.9938 239.178 48.112C239.671 48.2303 239.928 48.9206 239.753 49.6538C239.578 50.3871 239.037 50.8857 238.544 50.7674Z" fill="#1B1B1B"/>
<path d="M247.881 53.1121C247.388 52.9939 247.131 52.3036 247.306 51.5703C247.481 50.8371 248.022 50.3385 248.515 50.4568C249.008 50.575 249.265 51.2653 249.09 51.9986C248.915 52.7318 248.374 53.2304 247.881 53.1121Z" fill="#1B1B1B"/>
<path d="M266.612 132.71C269.973 135.907 273.515 138.907 277.222 141.694" stroke="#1B1B1B" stroke-width="0.808469" stroke-linecap="round" stroke-linejoin="round"/>
<path d="M322 263H186.785C148.688 263 125 246.204 125 214.233C125 182.261 133.059 160.013 140.874 135.017C149.768 106.57 164.186 86.2349 195.445 85" stroke="#1B1B1B" stroke-width="0.808469" stroke-linecap="round" stroke-linejoin="round"/>
<path d="M433.84 168.214H332.33V170.337" stroke="#1B1B1B" stroke-width="0.808469" stroke-linecap="round" stroke-linejoin="round"/>
<path d="M353.085 165.419L371.049 109.739H458.895L438.07 174.291" stroke="#1B1B1B" stroke-width="0.808469" stroke-linecap="round" stroke-linejoin="round"/>
<path d="M374.545 112.97H453.606L437.081 164.192H358.065L374.545 112.97Z" fill="#F8EFE5" stroke="#1B1B1B" stroke-width="0.808469" stroke-linecap="round" stroke-linejoin="round"/>
<path d="M422.068 150.116H436.838L433.084 159.38H418.359L422.068 150.116Z" fill="#3C8AAC"/>
<path d="M50 263L548 263" stroke="#1B1B1B" stroke-linecap="round" stroke-linejoin="round"/>
<path d="M453.606 235.252H411.474" stroke="#1B1B1B" stroke-width="0.808469" stroke-linecap="round" stroke-linejoin="round"/>
<path d="M453.606 207.417H411.474" stroke="#1B1B1B" stroke-width="0.808469" stroke-linecap="round" stroke-linejoin="round"/>
<path d="M378.206 181.601V258.082C378.206 259.379 377.692 260.624 376.777 261.542C375.862 262.459 374.62 262.975 373.326 262.975H340.931" stroke="#1B1B1B" stroke-width="0.808469" stroke-linecap="round" stroke-linejoin="round"/>
<path d="M378.206 235.252H365.967" stroke="#1B1B1B" stroke-width="0.808469" stroke-linecap="round" stroke-linejoin="round"/>
<path d="M378.206 207.417H370.725" stroke="#1B1B1B" stroke-width="0.808469" stroke-linecap="round" stroke-linejoin="round"/>
<path d="M373.393 151.011L391.725 131.169L411.002 142.585L432.495 125.638" stroke="#3C8AAC" stroke-width="0.808469" stroke-linecap="round" stroke-linejoin="round"/>
<path d="M433.452 126.367C433.961 125.809 433.917 124.936 433.352 124.418C432.788 123.9 431.917 123.932 431.407 124.49C430.897 125.048 430.942 125.921 431.506 126.439C432.071 126.958 432.942 126.925 433.452 126.367Z" fill="#1B1B1B"/>
<path d="M412.022 143.524C412.533 142.965 412.49 142.091 411.925 141.573C411.361 141.054 410.489 141.088 409.978 141.647C409.467 142.207 409.51 143.08 410.075 143.599C410.639 144.117 411.511 144.084 412.022 143.524Z" fill="#1B1B1B"/>
<path d="M392.75 132.107C393.255 131.554 393.206 130.686 392.642 130.168C392.077 129.649 391.21 129.677 390.705 130.23C390.2 130.783 390.249 131.652 390.813 132.17C391.378 132.688 392.245 132.66 392.75 132.107Z" fill="#1B1B1B"/>
<path d="M374.413 151.368C374.916 150.817 374.866 149.95 374.301 149.432C373.737 148.914 372.871 148.94 372.368 149.491C371.865 150.042 371.915 150.908 372.479 151.427C373.044 151.945 373.909 151.919 374.413 151.368Z" fill="#1B1B1B"/>
<path d="M251.036 202.085C251.036 202.085 237.898 190.073 207.113 193.337C194.376 194.682 185.352 196.204 174.903 196.478" stroke="#1B1B1B" stroke-width="0.808469" stroke-linecap="round" stroke-linejoin="round"/>
<path d="M199.992 206.061C195.825 206.421 191.628 205.917 187.662 204.581C183.697 203.245 180.048 201.106 176.943 198.296C169.402 191.446 160.893 185.751 151.692 181.395" stroke="#1B1B1B" stroke-width="0.808469" stroke-linecap="round" stroke-linejoin="round"/>
<path d="M212.855 192.885C212.855 192.885 216.203 186.911 216.203 183.099C216.203 179.287 208.843 169.584 199.161 164.015C189.478 158.447 181.05 159.367 175.843 162.303C170.636 165.239 161.017 178.103 163.154 187.747L174.559 196.178C177.873 196.281 181.189 196.186 184.491 195.895C189.234 195.41 212.855 192.885 212.855 192.885Z" fill="#1B1B1B"/>
<path d="M237.363 90.069L239.96 89.702C240.084 89.6822 240.211 89.7066 240.319 89.771C240.426 89.8354 240.508 89.9356 240.55 90.0543C240.577 90.1308 240.587 90.2123 240.578 90.2929C240.57 90.3736 240.544 90.4513 240.501 90.5206C240.459 90.5899 240.403 90.6489 240.335 90.6935C240.268 90.7381 240.191 90.7671 240.111 90.7785L237.402 91.1552L237.363 90.069Z" fill="#3C8AAC"/>
<path d="M346.507 181.606H460.52V174.291H334.677" fill="#F8EFE5"/>
<path d="M346.507 176.372H460.52V173.681H334.677" fill="#1B1B1B"/>
<path d="M321.354 167.31C340.914 177.096 346.502 181.603 346.502 181.603C352.498 185.652 357.408 191.117 360.801 197.516C364.194 203.916 365.966 211.054 365.96 218.302C365.939 225.01 364.449 231.632 361.593 237.699C358.738 243.766 354.587 249.13 349.435 253.411" stroke="#1B1B1B" stroke-width="0.808469" stroke-linecap="round" stroke-linejoin="round"/>
<path d="M302.463 260.334H293.283" stroke="#1B1B1B" stroke-width="0.808469" stroke-linecap="round" stroke-linejoin="round"/>
<path d="M289.69 260.334H252" stroke="#1B1B1B" stroke-width="0.808469" stroke-linecap="round" stroke-linejoin="round"/>
<path d="M180.945 195.682V193.235C180.944 192.859 180.826 192.492 180.609 192.185C180.391 191.878 180.084 191.647 179.73 191.522C178.573 191.102 176.489 190.725 173.068 191.253" stroke="#F8EFE5" stroke-width="0.808469" stroke-linecap="round" stroke-linejoin="round"/>
<path d="M177.011 191.014C176.166 190.717 175.405 190.221 174.791 189.568C174.177 188.915 173.728 188.124 173.482 187.261" stroke="#F8EFE5" stroke-width="0.808469" stroke-linecap="round" stroke-linejoin="round"/>
<path d="M202.885 193.305V191.445C202.885 191.005 202.755 190.575 202.51 190.209C202.266 189.843 201.919 189.558 201.513 189.39C200.596 189.009 199.151 188.744 196.984 189.131" stroke="#F8EFE5" stroke-width="0.808469" stroke-linecap="round" stroke-linejoin="round"/>
<path d="M192.671 176.726C190.38 176.407 188.061 176.34 185.756 176.525L182.3 170.653C182.3 170.653 180.509 171.754 178.23 177.259" stroke="#F8EFE5" stroke-width="0.808469" stroke-linecap="round" stroke-linejoin="round"/>
<path d="M190.601 176.498C192.166 174.657 194.206 173.283 196.496 172.524L196.228 180.241C196.19 181.372 196.31 182.504 196.584 183.602L197.219 186.117C197.421 186.985 197.378 187.891 197.097 188.735C196.728 189.829 196.184 190.855 195.486 191.774C195.258 192.067 194.966 192.303 194.633 192.466C194.3 192.629 193.934 192.713 193.563 192.713H192.055C191.716 192.713 191.391 192.578 191.151 192.338C190.911 192.097 190.777 191.771 190.777 191.431V190.159" stroke="#F8EFE5" stroke-width="0.808469" stroke-linecap="round" stroke-linejoin="round"/>
<path d="M190.776 190.164V191.666C190.776 191.939 190.668 192.201 190.476 192.395C190.284 192.588 190.024 192.697 189.751 192.699H186.769C185.613 192.698 184.481 192.372 183.5 191.759C183.012 191.466 182.524 191.167 182.128 190.971" stroke="#F8EFE5" stroke-width="0.808469" stroke-linecap="round" stroke-linejoin="round"/>
<path d="M193.182 192.717V194.459" stroke="#F8EFE5" stroke-width="0.808469" stroke-linecap="round" stroke-linejoin="round"/>
<path d="M193.532 173.958C193.532 173.958 193.698 172.602 193.171 172.074C192.644 171.545 190.965 170.322 190.423 169.779C189.881 169.236 190.423 168.115 190.423 168.115" stroke="#F8EFE5" stroke-width="0.808469" stroke-linecap="round" stroke-linejoin="round"/>
<path d="M196.275 178.943C196.275 178.943 200.891 174.446 205.708 176.497" stroke="#F8EFE5" stroke-width="0.808469" stroke-linecap="round" stroke-linejoin="round"/>
<path d="M187.819 185.818C187.145 185.515 186.42 185.341 185.682 185.305" stroke="#F8EFE5" stroke-width="0.808469" stroke-linecap="round" stroke-linejoin="round"/>
<path d="M192.758 185.97C193.435 185.662 194.163 185.484 194.905 185.446" stroke="#F8EFE5" stroke-width="0.808469" stroke-linecap="round" stroke-linejoin="round"/>
<path d="M192.109 188.969C191.835 188.69 189.669 188.705 189.42 188.969C189.171 189.234 190.337 190.677 190.776 190.677C191.216 190.677 192.387 189.243 192.109 188.969Z" fill="#F8EFE5"/>
<path d="M208.334 170.561C208.334 170.561 214.552 176.496 215.85 180.9C216.309 182.456 216.075 184.325 215.577 186.125" stroke="#F8EFE5" stroke-width="0.808469" stroke-linecap="round" stroke-linejoin="round"/>
<path d="M189.385 230.275H212.644V263.021H189.385V230.275Z" fill="#3C8AAC"/>
<path d="M189.4 263.015H212.582" stroke="#1B1B1B" stroke-width="0.808469" stroke-linecap="round" stroke-linejoin="round"/>
<path d="M212.644 230.275H189.458" stroke="#1B1B1B" stroke-width="0.808469" stroke-linecap="round" stroke-linejoin="round"/>
<path d="M209.247 236.886H216.831C217.381 236.885 217.926 236.993 218.435 237.205C218.943 237.416 219.405 237.725 219.794 238.116C220.182 238.507 220.49 238.97 220.699 239.48C220.909 239.991 221.016 240.537 221.014 241.089V253.894C221.012 255.005 220.571 256.071 219.787 256.856C219.003 257.641 217.94 258.083 216.831 258.083H209.247C208.698 258.083 208.155 257.975 207.647 257.765C207.14 257.555 206.679 257.247 206.29 256.858C205.902 256.469 205.594 256.007 205.383 255.498C205.173 254.99 205.065 254.445 205.065 253.894V241.089C205.062 240.537 205.169 239.99 205.378 239.48C205.587 238.969 205.895 238.505 206.284 238.115C206.672 237.724 207.134 237.414 207.643 237.203C208.152 236.992 208.697 236.884 209.247 236.886ZM208.979 252.235C208.978 252.383 209.007 252.53 209.063 252.667C209.119 252.804 209.202 252.928 209.306 253.033C209.411 253.137 209.535 253.22 209.671 253.276C209.807 253.333 209.954 253.361 210.101 253.361H215.958C216.255 253.361 216.541 253.242 216.751 253.031C216.962 252.82 217.08 252.534 217.08 252.235V242.718C217.08 242.419 216.962 242.133 216.752 241.921C216.541 241.709 216.256 241.589 215.958 241.588H210.101C209.953 241.588 209.807 241.617 209.671 241.674C209.534 241.731 209.41 241.814 209.306 241.919C209.202 242.024 209.119 242.149 209.063 242.286C209.007 242.423 208.978 242.57 208.979 242.718V252.235Z" fill="#3C8AAC"/>
</svg>
